<svg xmlns="http://www.w3.org/2000/svg" xmlns:xlink="http://www.w3.org/1999/xlink" version="1.1" x="0px" y="0px" viewBox="0 0 100 125" style="enable-background:new 0 0 100 100;" xml:space="preserve"><g><path d="M85.42,26.73c-0.93-12.29-10.9-14.2-14.65-14.92c-0.25-0.05-0.49-0.09-0.7-0.14c-2.21-0.46-8.46-3.47-11.88-5.25   c-0.7-0.36-1.52-0.38-2.22-0.05C55.2,6.58,52.31,6.78,50,6.84c-2.31-0.06-5.2-0.25-5.97-0.47c-0.7-0.33-1.53-0.32-2.22,0.05   c-3.42,1.79-9.66,4.79-11.87,5.26c-0.21,0.04-0.45,0.09-0.7,0.14c-3.75,0.72-13.72,2.64-14.65,14.92   c-0.84,11.12-0.72,15.54-0.71,15.72c0.03,1.04,0.71,1.95,1.69,2.28c2.14,0.73,8.78,2.74,12.88,1.06c0.43,4.29,0.73,9.68,0.35,14.85   c-0.83,11.28-2.49,21.2-2.5,21.29c-0.05,0.31-0.05,0.64,0.02,0.95c0.1,0.45,2.64,10.97,23.69,10.97   c21.05,0,23.59-10.52,23.69-10.97c0.07-0.31,0.08-0.63,0.02-0.95c-0.02-0.1-1.68-10.02-2.5-21.29c-0.38-5.17-0.08-10.56,0.35-14.85   c4.1,1.68,10.74-0.33,12.88-1.06c0.98-0.34,1.65-1.25,1.69-2.28C86.13,42.27,86.26,37.86,85.42,26.73z M40.92,13.04   c0.58,1.98,2.68,3.53,6.22,4.65c-2.12-0.13-4.91-0.81-6.59-3.28l-0.03-0.05l-3.01-0.29c1.16-0.53,2.3-1.07,3.29-1.56   C40.84,12.69,40.87,12.87,40.92,13.04z M59.11,13.04c0.05-0.17,0.09-0.34,0.11-0.51c0.99,0.49,2.12,1.02,3.27,1.55l-2.92,0.28   l-0.06,0.01l-0.03,0.05c-1.67,2.47-4.47,3.15-6.59,3.28C56.42,16.58,58.53,15.02,59.11,13.04z M49.94,11.84c0.04,0,0.08,0,0.12,0   c3.59-0.08,5.57-0.31,6.7-0.53c0.28,0.14,0.62,0.32,0.99,0.5c0.01,0.27,0,0.54-0.09,0.82c-0.38,1.27-2.01,3.05-7.65,4.29   c-5.63-1.24-7.27-3.01-7.65-4.29c-0.08-0.29-0.1-0.57-0.09-0.84c0.36-0.18,0.69-0.35,0.96-0.49   C44.37,11.53,46.35,11.75,49.94,11.84z M73.85,41.33l-1.15-4.98c-0.27-1.15-1.29-1.97-2.48-1.94c-1.18,0.02-2.18,0.87-2.41,2.03   c-0.1,0.52-2.44,12.84-1.59,24.58c0.72,9.84,2.07,18.67,2.45,21.1c-0.69,1.44-4.2,6.75-18.67,6.75c-14.56,0-18.03-5.38-18.68-6.73   c0.38-2.41,1.73-11.26,2.46-21.12c0.86-11.73-1.49-24.06-1.59-24.58c-0.22-1.16-1.23-2-2.41-2.03c-1.2-0.06-2.22,0.79-2.48,1.94   l-1.15,4.98c-1.36,0.33-4.34-0.01-7.28-0.81c0.03-2.17,0.17-6.45,0.7-13.41c0.59-7.82,5.79-9.47,10.61-10.39   c0.28-0.05,0.54-0.1,0.78-0.15c1.49-0.31,3.81-1.25,6.11-2.28l3.32,0.32c1.97,2.85,5.39,3.36,7.59,3.36c0.02,0,0.03,0,0.04,0   c0.58,0.16,1.2,0.31,1.84,0.45l0.16,0.03l0.16-0.03c0.65-0.14,1.26-0.29,1.84-0.45c0.02,0,0.03,0,0.04,0c2.2,0,5.62-0.51,7.59-3.36   l3.3-0.32c2.29,1.03,4.62,1.97,6.1,2.27c0.23,0.05,0.49,0.1,0.78,0.15c4.82,0.93,10.01,2.57,10.61,10.39   c0.53,6.96,0.67,11.24,0.7,13.41C78.19,41.33,75.21,41.66,73.85,41.33z"/><path d="M64.95,24.27c-0.2-0.07-0.42-0.01-0.55,0.15l-0.38,0.47l-0.26-0.27c-0.17-0.17-0.44-0.2-0.64-0.07   c-0.1,0.06-0.18,0.09-0.25,0.09v-0.23l1.05-0.84c0.17-0.13,0.23-0.36,0.16-0.56c-0.07-0.2-0.26-0.33-0.47-0.33h-4.63   c-0.21,0-0.4,0.13-0.47,0.33c-0.07,0.2-0.01,0.42,0.16,0.56l1.05,0.84v0.23h0c-0.07,0-0.15-0.02-0.25-0.09   c-0.2-0.13-0.47-0.1-0.64,0.07l-0.26,0.27l-0.38-0.47c-0.13-0.16-0.36-0.23-0.55-0.15c-0.2,0.07-0.33,0.26-0.33,0.47v4.68   c0,0.21,0.14,0.4,0.34,0.47c0.2,0.07,0.43,0,0.56-0.17l0.51-0.67c-0.01,0.16-0.02,0.31-0.04,0.4c-0.04,0.22,0.07,0.43,0.26,0.53   c0.19,0.1,0.42,0.26,0.46,0.33c0.1,0.17,0.21,0.3,0.31,0.41l-0.01,0.59l-1.06,0.83c-0.17,0.13-0.24,0.35-0.17,0.56   s0.26,0.34,0.47,0.34h4.72c0.21,0,0.4-0.14,0.47-0.34s0-0.43-0.17-0.56l-1.06-0.83l-0.01-0.59c0.09-0.1,0.21-0.24,0.3-0.4   c0.05-0.07,0.27-0.24,0.46-0.34c0.19-0.1,0.3-0.32,0.26-0.53c-0.02-0.09-0.03-0.23-0.04-0.4l0.51,0.66   c0.13,0.17,0.36,0.24,0.56,0.17c0.2-0.07,0.34-0.26,0.34-0.47v-4.68C65.28,24.53,65.15,24.34,64.95,24.27z M64.28,27.96l-0.07-0.09   c-0.1-0.13-0.25-0.2-0.41-0.19l-0.46,0.01c-0.27,0.01-0.48,0.23-0.49,0.49c0,0.08-0.01,0.65,0.02,1.1   c-0.2,0.13-0.44,0.32-0.57,0.54c-0.1,0.18-0.26,0.31-0.26,0.31c-0.12,0.1-0.19,0.24-0.18,0.39l0.01,1.05   c0,0.15,0.07,0.29,0.19,0.39l0.1,0.08h-1.8l0.1-0.08c0.12-0.09,0.19-0.24,0.19-0.39l0.01-1.05c0-0.15-0.07-0.3-0.18-0.39   c0,0-0.16-0.13-0.26-0.31c-0.13-0.22-0.37-0.41-0.57-0.54c0.03-0.45,0.03-1.02,0.02-1.1c0-0.27-0.22-0.48-0.49-0.49l-0.46-0.01   c-0.17,0-0.31,0.07-0.41,0.19l-0.07,0.09v-1.87c0.07,0.04,0.14,0.06,0.22,0.06c0.14,0,0.28-0.05,0.38-0.15l0.4-0.42   c0.54,0.17,1.03-0.05,1.24-0.22c0.11-0.09,0.18-0.24,0.18-0.38v-0.8c0-0.15-0.07-0.29-0.19-0.39l-0.13-0.11h1.8l-0.13,0.11   c-0.12,0.1-0.19,0.24-0.19,0.39v0.8c0,0.15,0.07,0.29,0.18,0.38c0.21,0.17,0.69,0.39,1.24,0.22l0.4,0.42   c0.1,0.1,0.24,0.16,0.38,0.15c0.08,0,0.15-0.02,0.22-0.06V27.96z"/></g><text x="0" y="115" fill="#000000" font-size="5px" font-weight="bold" font-family="'Helvetica Neue', Helvetica, Arial-Unicode, Arial, Sans-serif">Created by Mark Caron</text><text x="0" y="120" fill="#000000" font-size="5px" font-weight="bold" font-family="'Helvetica Neue', Helvetica, Arial-Unicode, Arial, Sans-serif">from the Noun Project</text></svg>